<?xml version="1.0" encoding="utf-8"?>
<!-- Generator: Adobe Illustrator 22.1.0, SVG Export Plug-In . SVG Version: 6.00 Build 0)  -->
<svg version="1.1" id="Layer_1" xmlns="http://www.w3.org/2000/svg" xmlns:xlink="http://www.w3.org/1999/xlink" x="0px" y="0px"
	 viewBox="0 0 101 107" style="enable-background:new 0 0 101 107;" xml:space="preserve">
<style type="text/css">
	.st0{fill:#FFFFFF;}
</style>
<g>
	<g>
		<path class="st0" d="M32.1,78.3c-0.4-0.5-0.6-1.2-0.6-2l0,0c0-13.3,0-26.8,0-40.1l0,0c0-2,1.4-3.5,3.4-3.5c2.2,0,4.5,0,6.7,0
			c-0.1,0.8-0.2,1.5-0.2,2.3c0,0.7,0.1,1.4,0.2,2.2c-1.6,0-3.1,0-4.8,0l0,0c-0.4,0-0.7,0.3-0.7,0.7c0,10.6,0,31.8,0,31.8l0,0
			L32.1,78.3L32.1,78.3z M48.8,52.9c-0.5-1.1-1.1-2.3-1.6-3.4C47.8,50.7,48.3,51.8,48.8,52.9z M46.6,48.3c-0.1-0.1-0.1-0.2-0.2-0.4
			l0.8,1.6C47,49.1,46.8,48.7,46.6,48.3z M71.6,32.8L71.6,32.8L71.6,32.8H55.8c0.4,1.4,0.4,2.9,0,4.4h14c0.1,0,0.1,0,0.1,0l0,0l0,0
			c0.4,0,0.7,0.3,0.7,0.7c0,5.6,0,11.1,0,16.7c0,4.9,0,9.8,0,14.6c0,0.1-0.1,0.2-0.2,0.2s-0.2-0.1-0.2-0.1l0,0l0,0
			c-0.5-1-1.1-2.3-1.8-4l0,0l0,0l0,0l0,0l0,0l0,0l0,0c0,0,0,0,0-0.1l0,0c0-0.1-0.1-0.1-0.1-0.2l0,0C65,58,60.1,47.4,59,45
			c-1-2.2-2.8-3-4.1-3.2c-1.9-0.4-4.1,0.1-5.3,1.2c-0.5,0.1-0.6,0.2-0.6,0.4c0,0.1,0,0.2,0.1,0.4c1.5,3.1,11.6,24.7,15.4,32.8
			c0.7,1.6,1.2,2.7,1.5,3.1h5.8c1.9,0,3.4-1.5,3.4-3.5V36.1C75.1,34.2,73.6,32.8,71.6,32.8z"/>
		<path class="st0" d="M44.2,35c0-3,2.5-4.6,4.6-4.6c2.2,0,4.5,1.6,4.5,4.5s-2.4,4.6-4.5,4.5C46.7,39.6,44.2,38,44.2,35z M36.2,69.7
			l-4.1,8.6c0.6,0.9,1.7,1.4,2.9,1.4l0,0c8.5,0,17.3,0,25.8,0c0.2,0,0.4,0,0.6,0c-0.1-0.3-0.2-0.5-0.3-0.6c-1.1-2.3-2.2-4.7-3.3-7
			c-0.2-0.5-0.5-0.6-0.9-0.6c-3.9,0-7.8,0-11.8,0c-0.2,0-0.5,0-0.7-0.1c0.1-0.3,0.2-0.4,0.2-0.6c2-4.3,4.1-8.7,6.1-13
			c0.1-0.2,0.1-0.6,0-0.8c-1.2-2.6-2.4-5.1-3.6-7.7l-0.8-1.6C43,55.2,36.2,69.7,36.2,69.7z"/>
	</g>
</g>
</svg>
