<?xml version="1.0" encoding="utf-8"?>
<!-- Generator: Adobe Illustrator 22.1.0, SVG Export Plug-In . SVG Version: 6.00 Build 0)  -->
<svg version="1.1" id="Layer_1" xmlns="http://www.w3.org/2000/svg" xmlns:xlink="http://www.w3.org/1999/xlink" x="0px" y="0px"
	 viewBox="0 0 110.8 76.8" style="enable-background:new 0 0 110.8 76.8;" xml:space="preserve">
<style type="text/css">
	.st0{fill:#FFFFFF;}
	.st1{fill-rule:evenodd;clip-rule:evenodd;fill:#FFFFFF;}
</style>
<g>
	<g>
		<path class="st0" d="M38.4,62.3c-0.2,0-6.2,0-9,0c-2.2,0-3.4,0.8-4,2.8c-0.6,1.7-0.6,3.5-0.6,5.2c0.1,1.6,0.2,3.1,0.9,4.6
			c0.7,1.4,1.8,2.2,3.5,2.2c0.5,0,9,0,9.2,0c0-1.1,0-2.1,0-3.2c-0.2,0,0.2,0,0,0c-2.6,0-5.8,0-8.4,0c-1,0-1.3-0.2-1.5-1.2
			c-0.1-0.8-0.3-1.7-0.2-2.5c0-1.3,0.1-2.5,0.3-3.8c0.1-0.7,0.4-0.9,1.2-0.9c2.7,0,8.3,0,8.6,0C38.4,64.4,38.4,63.4,38.4,62.3z"/>
		<path class="st0" d="M41.1,62.3c0,0.2,0,8,0,10.7c0,2.1,0.8,3.2,2.9,3.8c1.8,0.6,3.6,0.6,5.5,0.6c1.6,0,3.3-0.2,4.8-0.9
			c1.5-0.7,2.3-1.7,2.3-3.3c0-0.5,0-10.7,0-10.9c-1.1,0-2.2,0-3.4,0c0,0.2,0-0.2,0,0c0,2.5,0,7.6,0,10.1c0,1-0.2,1.3-1.3,1.4
			c-0.9,0.1-1.7,0.2-2.6,0.2c-1.3,0-2.6-0.1-4-0.3c-0.8-0.1-0.9-0.4-0.9-1.2c0-2.6,0-10.1,0-10.3C43.3,62.3,42.2,62.3,41.1,62.3z"/>
		<path class="st0" d="M75.4,62.3c0,0.2,0,8,0,10.7c0,2.1,0.8,3.2,2.9,3.8c1.8,0.6,3.6,0.6,5.5,0.6c1.6,0,3.3-0.2,4.8-0.9
			c1.5-0.7,2.3-1.7,2.3-3.3c0-0.5,0-10.7,0-10.9c-1.1,0-2.2,0-3.4,0c0,0.2,0-0.2,0,0c0,2.5,0,7.6,0,10.1c0,1-0.2,1.3-1.3,1.4
			c-0.9,0.1-1.7,0.2-2.6,0.2c-1.3,0-2.6-0.1-4-0.3c-0.8-0.1-0.9-0.4-0.9-1.2c0-2.6,0-10.1,0-10.3C77.6,62.3,76.5,62.3,75.4,62.3z"/>
		<path class="st1" d="M109.6,62.3c0,1,0,2.1,0,3.1c-0.2,0-0.4,0-0.6,0c-3.5,0-7.1,0-10.6,0c-0.7,0-0.8,0.1-0.8,0.7
			c0,0.4,0,0.7,0,1.1c0,0.5,0.2,0.6,0.7,0.6c2.5,0,5.1,0,7.6,0c2.4,0,3.8,1.3,3.8,3.6c0,0.7,0,1.4,0,2c0,1.9-1.4,3.3-3.4,3.4
			c-4,0-7.9,0-11.9,0c0,0-0.1,0-0.2,0c0-1,0-2.1,0-3.2c0.2,0,0.4,0,0.6,0c3.6,0,7.1,0,10.7,0c0.7,0,0.7,0,0.7-0.7c0-0.4,0-0.8,0-1.2
			c0-0.4-0.2-0.6-0.6-0.6c-0.6,0-1.2,0-1.8,0c-2.1,0-4.1,0-6.2,0c-2,0-3.5-1.4-3.5-3.3c0-0.9,0-1.8,0-2.6c0-1.5,1.4-3,3-3
			c4.1,0,8.1,0,12.2,0C109.5,62.3,109.5,62.3,109.6,62.3z"/>
		<path class="st1" d="M73.2,73.9c-2.9,0-6.8,0-9.4,0c-1,0-1,0-1-0.9c0-3.3,0-6.3,0-9.6c0-0.2,0-0.8,0-1c-1.2,0-2.3,0-3.4,0
			c0,0.1,0,0.6,0,0.7c0,3.8,0,7.3,0,11.1c0,1.7,1.6,3,3.3,3c3,0,7.2,0,10.5,0V73.9z"/>
		<path class="st1" d="M22.1,77c-1.4,0-2,0-3.3,0c0-3.4,0-7,0-10.5c1.1,0,2.2,0,3.3,0C22.1,69.9,22.1,73.5,22.1,77z"/>
		<path class="st1" d="M20.4,65c-1.2,0-2.1-0.8-2.1-2c0-1.1,1-2,2.1-2c1.1,0,2.1,1,2.1,2C22.5,64.1,21.6,65,20.4,65z"/>
		<path class="st1" d="M11.7,77C7.8,77,3.9,77,0,77c0.1-0.3,0.2-0.6,0.3-0.8c2-4.3,4-8.5,5.9-12.8c0.7-1.4,1.9-1.7,3.1-1.4
			c0.7,0.2,1.1,0.8,1.4,1.4c1.6,3.4,3.1,6.8,4.7,10.2c0.4,0.9,0.9,1.9,1.3,2.8c0.1,0.2,0.1,0.3,0.2,0.6c-0.4,0-0.7,0-1,0
			c-0.7,0-1.4,0-1.9,0c-0.4,0-0.6-0.1-0.7-0.5c-1.4-3.1-2.8-6.1-4.2-9.2C9,67.2,8.9,67.1,8.8,67c-0.2-0.4-0.5-0.4-0.8,0
			C8.1,67,8,67.1,8,67.1c-1,2-1.9,4.1-2.9,6.1c-0.1,0.1-0.1,0.3-0.2,0.5c0.4,0,0.7,0,1.1,0c1.2,0,2.5,0,3.7,0c0.2,0,0.5,0.1,0.5,0.2
			C10.8,74.9,11.2,75.9,11.7,77z"/>
	</g>
	<g>
		<path class="st1" d="M35.4,45.6c-0.4-0.5-0.6-1.1-0.6-1.9h0c0-12.6,0-25.5,0-38.2h0c0-1.9,1.4-3.3,3.4-3.4c2.2,0,4.5,0,6.7,0
			c-0.1,0.7-0.2,1.4-0.2,2.1c0,0.7,0.1,1.4,0.2,2.1c-1.6,0-3.1,0-4.8,0l0,0c-0.4,0-0.7,0.3-0.7,0.6c0,10.1,0,30.3,0,30.3l0,0
			L35.4,45.6C35.4,45.6,35.4,45.6,35.4,45.6z M52.2,21.4c-0.5-1.1-1.1-2.2-1.6-3.3C51.1,19.2,51.6,20.3,52.2,21.4z M50,17
			c-0.1-0.1-0.1-0.2-0.2-0.3l0.8,1.5C50.3,17.7,50.1,17.3,50,17z M74.9,2.2L74.9,2.2L74.9,2.2l-15.8,0c0.4,1.4,0.4,2.7,0,4.2l14,0
			c0.1,0,0.1,0,0.1,0v0l0,0c0.4,0,0.7,0.3,0.7,0.6c0,5.3,0,10.6,0,15.9c0,4.6,0,9.3,0,13.9c0,0.1-0.1,0.2-0.2,0.2
			c-0.1,0-0.2-0.1-0.2-0.1c0,0,0,0,0,0l0,0c-0.5-0.9-1.1-2.2-1.8-3.8l0,0c0,0,0,0,0,0c0,0,0,0,0,0c0,0,0,0,0,0c0,0,0,0,0,0
			c0,0,0,0,0,0c0,0,0,0,0,0c0,0,0,0,0-0.1c0,0,0,0,0,0c0-0.1-0.1-0.1-0.1-0.2c0,0,0,0,0,0c-3.3-6.7-8.2-16.8-9.3-19
			c-1-2.1-2.8-2.8-4.1-3.1c-1.9-0.4-4.1,0.1-5.3,1.1c-0.2,0.2-0.3,0.3-0.3,0.5c0,0.1,0,0.2,0.1,0.4c1.5,2.9,11.6,23.5,15.4,31.2
			c0.7,1.5,1.2,2.5,1.5,3H75c1.9,0,3.4-1.4,3.4-3.3V5.4C78.4,3.6,76.9,2.2,74.9,2.2z"/>
		<path class="st1" d="M47.5,4.3C47.5,1.5,49.9,0,52,0c2.2,0,4.5,1.6,4.5,4.3c0,2.8-2.4,4.3-4.5,4.3C50.1,8.7,47.5,7.2,47.5,4.3z
			 M39.5,37.4l-4.1,8.2c0.6,0.8,1.7,1.4,2.9,1.4v0c8.5,0,17.3,0,25.8,0c0.2,0,0.4,0,0.6,0c-0.1-0.3-0.2-0.4-0.3-0.6
			c-1.1-2.2-2.2-4.4-3.3-6.7c-0.2-0.4-0.5-0.6-0.9-0.6c-3.9,0-7.8,0-11.8,0c-0.2,0-0.5,0-0.7-0.1c0.1-0.2,0.2-0.4,0.2-0.5
			c2-4.1,4.1-8.2,6.1-12.4c0.1-0.2,0.1-0.5,0-0.7c-1.2-2.4-2.4-4.9-3.6-7.3l-0.8-1.5C46.3,23.6,39.5,37.4,39.5,37.4z"/>
	</g>
</g>
</svg>
